<mxfile host="app.diagrams.net" modified="2020-11-19T07:57:44.306Z" agent="5.0 (Windows NT 6.1; Win64; x64) AppleWebKit/537.36 (KHTML, like Gecko) Chrome/86.0.4240.193 Safari/537.36" etag="xMZ7P03YXkNCE3ySxfId" version="13.10.0" type="github">
  <diagram id="C5RBs43oDa-KdzZeNtuy" name="Page-1">
    <mxGraphModel dx="942" dy="582" grid="1" gridSize="10" guides="1" tooltips="1" connect="1" arrows="1" fold="1" page="1" pageScale="1" pageWidth="827" pageHeight="1169" math="0" shadow="0">
      <root>
        <mxCell id="WIyWlLk6GJQsqaUBKTNV-0" />
        <mxCell id="WIyWlLk6GJQsqaUBKTNV-1" parent="WIyWlLk6GJQsqaUBKTNV-0" />
        <mxCell id="4qR5xEfGrQIq7jDZuA0x-42" value="" style="group" vertex="1" connectable="0" parent="WIyWlLk6GJQsqaUBKTNV-1">
          <mxGeometry x="100" y="80" width="490" height="490" as="geometry" />
        </mxCell>
        <mxCell id="4qR5xEfGrQIq7jDZuA0x-1" value="底层库" style="whiteSpace=wrap;html=1;aspect=fixed;fillColor=#0050ef;strokeColor=#001DBC;fontColor=#ffffff;" vertex="1" parent="4qR5xEfGrQIq7jDZuA0x-42">
          <mxGeometry x="390" y="70" width="80" height="80" as="geometry" />
        </mxCell>
        <mxCell id="4qR5xEfGrQIq7jDZuA0x-2" value="" style="endArrow=classic;html=1;entryX=0.5;entryY=0;entryDx=0;entryDy=0;exitX=0;exitY=0.25;exitDx=0;exitDy=0;" edge="1" parent="4qR5xEfGrQIq7jDZuA0x-42" source="4qR5xEfGrQIq7jDZuA0x-1" target="4qR5xEfGrQIq7jDZuA0x-6">
          <mxGeometry width="50" height="50" relative="1" as="geometry">
            <mxPoint x="310" y="80" as="sourcePoint" />
            <mxPoint x="70" y="110" as="targetPoint" />
          </mxGeometry>
        </mxCell>
        <mxCell id="4qR5xEfGrQIq7jDZuA0x-3" value="&lt;font style=&quot;font-size: 14px&quot;&gt;生成highlight.json&lt;br&gt;和beatj.json&lt;/font&gt;" style="edgeLabel;html=1;align=center;verticalAlign=middle;resizable=0;points=[];" vertex="1" connectable="0" parent="4qR5xEfGrQIq7jDZuA0x-2">
          <mxGeometry x="-0.2203" y="-3" relative="1" as="geometry">
            <mxPoint x="-20.580000000000005" y="9.520000000000007" as="offset" />
          </mxGeometry>
        </mxCell>
        <mxCell id="4qR5xEfGrQIq7jDZuA0x-25" value="" style="edgeStyle=orthogonalEdgeStyle;rounded=0;orthogonalLoop=1;jettySize=auto;html=1;exitX=0.5;exitY=0;exitDx=0;exitDy=0;" edge="1" parent="4qR5xEfGrQIq7jDZuA0x-42" source="4qR5xEfGrQIq7jDZuA0x-15" target="4qR5xEfGrQIq7jDZuA0x-1">
          <mxGeometry relative="1" as="geometry" />
        </mxCell>
        <mxCell id="4qR5xEfGrQIq7jDZuA0x-15" value="音频播放时间" style="rounded=0;whiteSpace=wrap;html=1;fillColor=#e3c800;strokeColor=#B09500;fontColor=#ffffff;" vertex="1" parent="4qR5xEfGrQIq7jDZuA0x-42">
          <mxGeometry x="210" y="210" width="120" height="60" as="geometry" />
        </mxCell>
        <mxCell id="4qR5xEfGrQIq7jDZuA0x-26" value="&lt;font style=&quot;font-size: 14px&quot;&gt;评分&lt;/font&gt;" style="text;html=1;align=center;verticalAlign=middle;resizable=0;points=[];autosize=1;" vertex="1" parent="4qR5xEfGrQIq7jDZuA0x-42">
          <mxGeometry x="294" y="180" width="40" height="20" as="geometry" />
        </mxCell>
        <mxCell id="4qR5xEfGrQIq7jDZuA0x-32" value="&lt;font style=&quot;font-size: 14px&quot;&gt;生成eur+replay.json&lt;/font&gt;" style="rounded=0;whiteSpace=wrap;html=1;" vertex="1" parent="4qR5xEfGrQIq7jDZuA0x-42">
          <mxGeometry x="370" y="390" width="120" height="60" as="geometry" />
        </mxCell>
        <mxCell id="4qR5xEfGrQIq7jDZuA0x-34" value="" style="endArrow=classic;html=1;exitX=1;exitY=0.5;exitDx=0;exitDy=0;entryX=0;entryY=0.25;entryDx=0;entryDy=0;" edge="1" parent="4qR5xEfGrQIq7jDZuA0x-42" source="4qR5xEfGrQIq7jDZuA0x-0" target="4qR5xEfGrQIq7jDZuA0x-1">
          <mxGeometry relative="1" as="geometry">
            <mxPoint x="20" y="230" as="sourcePoint" />
            <mxPoint x="120" y="230" as="targetPoint" />
          </mxGeometry>
        </mxCell>
        <mxCell id="4qR5xEfGrQIq7jDZuA0x-35" value="&lt;font style=&quot;font-size: 14px&quot;&gt;+speed+tone...&lt;br&gt;&lt;/font&gt;" style="edgeLabel;resizable=0;html=1;align=center;verticalAlign=middle;" connectable="0" vertex="1" parent="4qR5xEfGrQIq7jDZuA0x-34">
          <mxGeometry relative="1" as="geometry">
            <mxPoint x="-14.77" y="-4.94" as="offset" />
          </mxGeometry>
        </mxCell>
        <mxCell id="4qR5xEfGrQIq7jDZuA0x-36" value="" style="endArrow=classic;html=1;exitX=0.75;exitY=1;exitDx=0;exitDy=0;entryX=0.667;entryY=0.033;entryDx=0;entryDy=0;entryPerimeter=0;" edge="1" parent="4qR5xEfGrQIq7jDZuA0x-42" source="4qR5xEfGrQIq7jDZuA0x-1" target="4qR5xEfGrQIq7jDZuA0x-32">
          <mxGeometry width="50" height="50" relative="1" as="geometry">
            <mxPoint x="450" y="310" as="sourcePoint" />
            <mxPoint x="500" y="260" as="targetPoint" />
          </mxGeometry>
        </mxCell>
        <mxCell id="4qR5xEfGrQIq7jDZuA0x-0" value="曲谱文件.txt" style="rounded=0;whiteSpace=wrap;html=1;" vertex="1" parent="4qR5xEfGrQIq7jDZuA0x-42">
          <mxGeometry width="120" height="60" as="geometry" />
        </mxCell>
        <mxCell id="4qR5xEfGrQIq7jDZuA0x-6" value="曲谱显示" style="rounded=0;whiteSpace=wrap;html=1;fillColor=#f8cecc;strokeColor=#b85450;" vertex="1" parent="4qR5xEfGrQIq7jDZuA0x-42">
          <mxGeometry y="150" width="120" height="60" as="geometry" />
        </mxCell>
        <mxCell id="4qR5xEfGrQIq7jDZuA0x-7" value="" style="edgeStyle=orthogonalEdgeStyle;rounded=0;orthogonalLoop=1;jettySize=auto;html=1;fillColor=#f8cecc;strokeColor=#b85450;" edge="1" parent="4qR5xEfGrQIq7jDZuA0x-42" source="4qR5xEfGrQIq7jDZuA0x-0" target="4qR5xEfGrQIq7jDZuA0x-6">
          <mxGeometry as="geometry" />
        </mxCell>
        <mxCell id="4qR5xEfGrQIq7jDZuA0x-13" value="高亮走字" style="rounded=0;whiteSpace=wrap;html=1;fillColor=#f8cecc;strokeColor=#b85450;" vertex="1" parent="4qR5xEfGrQIq7jDZuA0x-42">
          <mxGeometry y="290" width="120" height="60" as="geometry" />
        </mxCell>
        <mxCell id="4qR5xEfGrQIq7jDZuA0x-14" value="" style="edgeStyle=orthogonalEdgeStyle;rounded=0;orthogonalLoop=1;jettySize=auto;html=1;fillColor=#f8cecc;strokeColor=#b85450;" edge="1" parent="4qR5xEfGrQIq7jDZuA0x-42" source="4qR5xEfGrQIq7jDZuA0x-6" target="4qR5xEfGrQIq7jDZuA0x-13">
          <mxGeometry as="geometry" />
        </mxCell>
        <mxCell id="4qR5xEfGrQIq7jDZuA0x-30" value="结束(停止高亮)" style="rounded=0;whiteSpace=wrap;html=1;fillColor=#f8cecc;strokeColor=#b85450;" vertex="1" parent="4qR5xEfGrQIq7jDZuA0x-42">
          <mxGeometry y="430" width="120" height="60" as="geometry" />
        </mxCell>
        <mxCell id="4qR5xEfGrQIq7jDZuA0x-31" value="" style="edgeStyle=orthogonalEdgeStyle;rounded=0;orthogonalLoop=1;jettySize=auto;html=1;fillColor=#f8cecc;strokeColor=#b85450;" edge="1" parent="4qR5xEfGrQIq7jDZuA0x-42" source="4qR5xEfGrQIq7jDZuA0x-13" target="4qR5xEfGrQIq7jDZuA0x-30">
          <mxGeometry as="geometry" />
        </mxCell>
        <mxCell id="4qR5xEfGrQIq7jDZuA0x-40" value="" style="endArrow=classic;html=1;exitX=0;exitY=0.5;exitDx=0;exitDy=0;" edge="1" parent="4qR5xEfGrQIq7jDZuA0x-42" source="4qR5xEfGrQIq7jDZuA0x-15">
          <mxGeometry relative="1" as="geometry">
            <mxPoint x="270" y="220" as="sourcePoint" />
            <mxPoint x="60" y="240" as="targetPoint" />
          </mxGeometry>
        </mxCell>
        <mxCell id="4qR5xEfGrQIq7jDZuA0x-41" value="&lt;font style=&quot;font-size: 18px&quot;&gt;Tick&lt;/font&gt;" style="edgeLabel;resizable=0;html=1;align=center;verticalAlign=middle;" connectable="0" vertex="1" parent="4qR5xEfGrQIq7jDZuA0x-40">
          <mxGeometry relative="1" as="geometry" />
        </mxCell>
      </root>
    </mxGraphModel>
  </diagram>
</mxfile>
